{"accessors" : [{"bufferView" : 0, "byteOffset" : 0, "componentType" : 5123, "count" : 516, "type" : "SCALAR", "max" : [431], "min" : [0]}, {"bufferView" : 1, "byteOffset" : 0, "componentType" : 5126, "count" : 432, "type" : "VEC3", "max" : [1, 1, 1], "min" : [-1, -9.208599090576172, -1], "name" : "POSITION"}, {"bufferView" : 1, "byteOffset" : 12, "componentType" : 5126, "count" : 432, "type" : "VEC2", "max" : [1, 1], "min" : [0, 0], "name" : "TEXCOORD_0"}, {"bufferView" : 1, "byteOffset" : 20, "componentType" : 5126, "count" : 432, "type" : "VEC3", "max" : [1.0000044107437134, 1.0000044107437134, 1.0000044107437134], "min" : [-1.0000044107437134, -1.0000044107437134, -1.0000044107437134], "name" : "NORMAL"}, {"bufferView" : 0, "byteOffset" : 1032, "componentType" : 5123, "count" : 1038, "type" : "SCALAR", "max" : [867], "min" : [0]}, {"bufferView" : 2, "byteOffset" : 0, "componentType" : 5126, "count" : 868, "type" : "VEC3", "max" : [1, 1, 1], "min" : [-1, -2.1387600898742676, -1], "name" : "POSITION"}, {"bufferView" : 2, "byteOffset" : 12, "componentType" : 5126, "count" : 868, "type" : "VEC2", "max" : [1, 0.9900000095367432], "min" : [0, 0], "name" : "TEXCOORD_0"}, {"bufferView" : 2, "byteOffset" : 20, "componentType" : 5126, "count" : 868, "type" : "VEC3", "max" : [0.9951891303062439, 1.0000044107437134, 0.9951891303062439], "min" : [-0.9951891303062439, -1.0000042915344238, -0.9951890707015991], "name" : "NORMAL"}, {"bufferView" : 0, "byteOffset" : 3108, "componentType" : 5123, "count" : 654, "type" : "SCALAR", "max" : [547], "min" : [0]}, {"bufferView" : 3, "byteOffset" : 0, "componentType" : 5126, "count" : 548, "type" : "VEC3", "max" : [0.365944504737854, -2.1387600898742676, 0.3659445345401764], "min" : [-0.365944504737854, -2.3488941192626953, -0.3659445345401764], "name" : "POSITION"}, {"bufferView" : 3, "byteOffset" : 12, "componentType" : 5126, "count" : 548, "type" : "VEC2", "max" : [1, 0.9900000095367432], "min" : [0, 0], "name" : "TEXCOORD_0"}, {"bufferView" : 3, "byteOffset" : 20, "componentType" : 5126, "count" : 548, "type" : "VEC3", "max" : [0.9951890707015991, 1.0000044107437134, 0.9951895475387573], "min" : [-0.9951895475387573, -1.0000044107437134, -0.9951891303062439], "name" : "NORMAL"}], "asset" : {"generator" : "Aspose.3D 22.12", "version" : "2.0"}, "buffers" : [{"uri" : "data:application/octet-stream;base64,", "byteLength" : 75088}], "bufferViews" : [{"buffer" : 0, "byteOffset" : 0, "byteLength" : 4416, "target" : 34963}, {"buffer" : 0, "byteOffset" : 4420, "byteLength" : 16512, "byteStride" : 32, "target" : 34962}, {"buffer" : 0, "byteOffset" : 20936, "byteLength" : 33216, "byteStride" : 32, "target" : 34962}, {"buffer" : 0, "byteOffset" : 54156, "byteLength" : 20928, "byteStride" : 32, "target" : 34962}], "materials" : [{"name" : "Material.003", "pbrMetallicRoughness" : {"baseColorFactor" : [0.800000011920929, 0.800000011920929, 0.800000011920929, 1], "metallicFactor" : 0.25, "roughnessFactor" : 0.4000000059604645}, "emissiveFactor" : [0, 0, 0], "alphaMode" : "OPAQUE", "doubleSided" : true}, {"name" : "Material.002", "pbrMetallicRoughness" : {"baseColorFactor" : [0.800000011920929, 0.800000011920929, 0.800000011920929, 1], "metallicFactor" : 0.5, "roughnessFactor" : 0.4000000059604645}, "emissiveFactor" : [0, 0, 0], "alphaMode" : "OPAQUE", "doubleSided" : true}, {"name" : "Material.001", "pbrMetallicRoughness" : {"baseColorFactor" : [0, 0, 0, 1], "metallicFactor" : 0.75, "roughnessFactor" : 0.4000000059604645}, "emissiveFactor" : [0, 0, 0], "alphaMode" : "OPAQUE", "doubleSided" : true}], "meshes" : [{"primitives" : [{"attributes" : {"POSITION" : 1, "TEXCOORD_0" : 2, "NORMAL" : 3}, "indices" : 0, "material" : 0, "mode" : 4}]}, {"primitives" : [{"attributes" : {"POSITION" : 5, "TEXCOORD_0" : 6, "NORMAL" : 7}, "indices" : 4, "material" : 1, "mode" : 4}]}, {"primitives" : [{"attributes" : {"POSITION" : 9, "TEXCOORD_0" : 10, "NORMAL" : 11}, "indices" : 8, "material" : 2, "mode" : 4}]}], "nodes" : [{"matrix" : [1.0684059858322144, 0, 0, 0, 0, 0.14011648297309875, 0, 0, 0, 0, 1.0684059858322144, 0, 0, 1.3000000715255737, 0, 1], "mesh" : 0, "name" : "Cylinder"}, {"matrix" : [1, 0, 0, 0, 0, -0.8781479597091675, 0, 0, 0, 0, 1, 0, 0, 1.5, 0, 1], "mesh" : 1, "name" : "Cylinder.001"}, {"matrix" : [1, 0, 0, 0, 0, -0.8781479597091675, 0, 0, 0, 0, 1, 0, 0, 1.5, 0, 1], "mesh" : 2, "name" : "Cylinder.002"}], "scene" : 0, "scenes" : [{"nodes" : [0, 1, 2]}]}