{"accessors" : [{"bufferView" : 0, "byteOffset" : 0, "componentType" : 5123, "count" : 36, "type" : "SCALAR", "max" : [29], "min" : [0]}, {"bufferView" : 1, "byteOffset" : 0, "componentType" : 5126, "count" : 30, "type" : "VEC3", "max" : [1, 1, 1], "min" : [-1, -1, -1], "name" : "POSITION"}, {"bufferView" : 1, "byteOffset" : 12, "componentType" : 5126, "count" : 30, "type" : "VEC2", "max" : [0.875, 1], "min" : [0.125, 0], "name" : "TEXCOORD_0"}, {"bufferView" : 1, "byteOffset" : 20, "componentType" : 5126, "count" : 30, "type" : "VEC3", "max" : [1.0000044107437134, 1.0000044107437134, 1.0000044107437134], "min" : [-1.0000044107437134, -1.0000044107437134, -1.0000044107437134], "name" : "NORMAL"}, {"bufferView" : 0, "byteOffset" : 72, "componentType" : 5123, "count" : 2460, "type" : "SCALAR", "max" : [2055], "min" : [0]}, {"bufferView" : 2, "byteOffset" : 0, "componentType" : 5126, "count" : 2056, "type" : "VEC3", "max" : [1.131286382675171, 1.090023398399353, 1.131286382675171], "min" : [-1.131286382675171, -1.426927924156189, -1.131286382675171], "name" : "POSITION"}, {"bufferView" : 2, "byteOffset" : 12, "componentType" : 5126, "count" : 2056, "type" : "VEC2", "max" : [1, 0.9900000095367432], "min" : [0, 0], "name" : "TEXCOORD_0"}, {"bufferView" : 2, "byteOffset" : 20, "componentType" : 5126, "count" : 2056, "type" : "VEC3", "max" : [0.9951892495155334, 1.0000044107437134, 0.9988168478012085], "min" : [-0.9951892495155334, -1.0000044107437134, -0.9988168478012085], "name" : "NORMAL"}, {"bufferView" : 0, "byteOffset" : 4992, "componentType" : 5123, "count" : 282, "type" : "SCALAR", "max" : [235], "min" : [0]}, {"bufferView" : 3, "byteOffset" : 0, "componentType" : 5126, "count" : 236, "type" : "VEC3", "max" : [1, 1, 1], "min" : [-1, -0.7052969932556152, -1], "name" : "POSITION"}, {"bufferView" : 3, "byteOffset" : 12, "componentType" : 5126, "count" : 236, "type" : "VEC2", "max" : [1, 0.9900000095367432], "min" : [0, 0], "name" : "TEXCOORD_0"}, {"bufferView" : 3, "byteOffset" : 20, "componentType" : 5126, "count" : 236, "type" : "VEC3", "max" : [0.9951890707015991, 1.0000044107437134, 0.9951891303062439], "min" : [-0.9951890707015991, 0, -0.9951891303062439], "name" : "NORMAL"}, {"bufferView" : 0, "byteOffset" : 5556, "componentType" : 5123, "count" : 1140, "type" : "SCALAR", "max" : [951], "min" : [0]}, {"bufferView" : 4, "byteOffset" : 0, "componentType" : 5126, "count" : 952, "type" : "VEC3", "max" : [1, 1, 1], "min" : [-1, -1, -1], "name" : "POSITION"}, {"bufferView" : 4, "byteOffset" : 12, "componentType" : 5126, "count" : 952, "type" : "VEC2", "max" : [1, 0.9900000095367432], "min" : [0, 0], "name" : "TEXCOORD_0"}, {"bufferView" : 4, "byteOffset" : 20, "componentType" : 5126, "count" : 952, "type" : "VEC3", "max" : [0.9951891303062439, 1.0000044107437134, 0.9951891899108887], "min" : [-0.9951890707015991, -1.0000044107437134, -0.9951891303062439], "name" : "NORMAL"}, {"bufferView" : 0, "byteOffset" : 7836, "componentType" : 5123, "count" : 2796, "type" : "SCALAR", "max" : [2343], "min" : [0]}, {"bufferView" : 5, "byteOffset" : 0, "componentType" : 5126, "count" : 2344, "type" : "VEC3", "max" : [11.580995559692383, 1.6048812866210938, 1.7000001668930054], "min" : [-1, -2.299358606338501, -1.6999999284744263], "name" : "POSITION"}, {"bufferView" : 5, "byteOffset" : 12, "componentType" : 5126, "count" : 2344, "type" : "VEC2", "max" : [1, 0.9900000095367432], "min" : [0, 0], "name" : "TEXCOORD_0"}, {"bufferView" : 5, "byteOffset" : 20, "componentType" : 5126, "count" : 2344, "type" : "VEC3", "max" : [1.0000044107437134, 1.0000044107437134, 0.9951892495155334], "min" : [-1.0000044107437134, -1.0000044107437134, -0.9951892495155334], "name" : "NORMAL"}], "asset" : {"generator" : "Aspose.3D 22.12", "version" : "2.0"}, "buffers" : [{"uri" : "data:application/octet-stream;base64,", "byteLength" : 228300}], "bufferViews" : [{"buffer" : 0, "byteOffset" : 0, "byteLength" : 13428, "target" : 34963}, {"buffer" : 0, "byteOffset" : 13432, "byteLength" : 1152, "byteStride" : 32, "target" : 34962}, {"buffer" : 0, "byteOffset" : 14588, "byteLength" : 78720, "byteStride" : 32, "target" : 34962}, {"buffer" : 0, "byteOffset" : 93312, "byteLength" : 9024, "byteStride" : 32, "target" : 34962}, {"buffer" : 0, "byteOffset" : 102340, "byteLength" : 36480, "byteStride" : 32, "target" : 34962}, {"buffer" : 0, "byteOffset" : 138824, "byteLength" : 89472, "byteStride" : 32, "target" : 34962}], "materials" : [{"name" : "Material.002", "pbrMetallicRoughness" : {"baseColorFactor" : [0.5173336267471313, 0.5173336267471313, 0.5173336267471313, 1], "metallicFactor" : 1, "roughnessFactor" : 0.4000000059604645}, "emissiveFactor" : [0, 0, 0], "alphaMode" : "OPAQUE", "doubleSided" : true}, {"name" : "Material.001", "pbrMetallicRoughness" : {"baseColorFactor" : [0.10946160554885864, 0.5209957361221313, 0.8148466348648071, 1], "metallicFactor" : 0, "roughnessFactor" : 1}, "emissiveFactor" : [0, 0, 0], "alphaMode" : "OPAQUE", "doubleSided" : true}, {"name" : "Material.003", "pbrMetallicRoughness" : {"baseColorFactor" : [0.800000011920929, 0.800000011920929, 0.800000011920929, 1], "metallicFactor" : 0.75, "roughnessFactor" : 0.4000000059604645}, "emissiveFactor" : [0, 0, 0], "alphaMode" : "OPAQUE", "doubleSided" : true}, {"name" : "Material.004", "pbrMetallicRoughness" : {"baseColorFactor" : [0, 0, 0, 1], "metallicFactor" : 0.5, "roughnessFactor" : 0.4000000059604645}, "emissiveFactor" : [0, 0, 0], "alphaMode" : "OPAQUE", "doubleSided" : true}], "meshes" : [{"primitives" : [{"attributes" : {"POSITION" : 1, "TEXCOORD_0" : 2, "NORMAL" : 3}, "indices" : 0, "mode" : 4}]}, {"primitives" : [{"attributes" : {"POSITION" : 5, "TEXCOORD_0" : 6, "NORMAL" : 7}, "indices" : 4, "material" : 0, "mode" : 4}]}, {"primitives" : [{"attributes" : {"POSITION" : 9, "TEXCOORD_0" : 10, "NORMAL" : 11}, "indices" : 8, "material" : 1, "mode" : 4}]}, {"primitives" : [{"attributes" : {"POSITION" : 13, "TEXCOORD_0" : 14, "NORMAL" : 15}, "indices" : 12, "material" : 2, "mode" : 4}]}, {"primitives" : [{"attributes" : {"POSITION" : 17, "TEXCOORD_0" : 18, "NORMAL" : 19}, "indices" : 16, "material" : 3, "mode" : 4}]}], "nodes" : [{"matrix" : [2.764505624771118, 0, 0, 0, 0, 0.1639048010110855, 0, 0, 0, 0, -1.6117794513702393, 0, -0.6999999284744263, -0.05000000447034836, 0, 1], "mesh" : 0, "name" : "Cube"}, {"matrix" : [1, 0, 0, 0, 0, -1.7776970863342285, 0, 0, 0, 0, 1, 0, -2, 2, 0, 1], "mesh" : 1, "name" : "Container"}, {"matrix" : [1, 0, 0, 0, 0, -1.7776970863342285, 0, 0, 0, 0, 1, 0, -2, 2, 0, 1], "mesh" : 2, "name" : "Tube"}, {"matrix" : [0.30000001192092896, 0, 0, 0, 0, 2.114434242248535, 0, 0, 0, 0, 0.30000001192092896, 0, 1, 2, 0, 1], "mesh" : 3, "name" : "Cylinder"}, {"matrix" : [7.647046711236437E-08, -0.2524225327398659, -1.6957595624698308E-08, 0, -0.5653748914794766, -2.09982105173994E-07, 3.798153615437446E-08, 0, 1.6957595624698308E-08, -1.6957589907025462E-08, 0.25242252409983196, 0, -0.20762929320335388, 2.7109246253967285, 0.021727174520492554, 1], "mesh" : 4, "name" : "Cylinder.007"}], "scene" : 0, "scenes" : [{"nodes" : [0, 1, 2, 3, 4]}]}