{"accessors" : [{"bufferView" : 0, "byteOffset" : 0, "componentType" : 5123, "count" : 156, "type" : "SCALAR", "max" : [131], "min" : [0]}, {"bufferView" : 1, "byteOffset" : 0, "componentType" : 5126, "count" : 132, "type" : "VEC3", "max" : [1, 0, 1.2307462692260742], "min" : [-1.5386937856674194, -1.8215527534484863, -1.3955650329589844], "name" : "POSITION"}, {"bufferView" : 1, "byteOffset" : 12, "componentType" : 5126, "count" : 132, "type" : "VEC2", "max" : [1, 1], "min" : [0, 0], "name" : "TEXCOORD_0"}, {"bufferView" : 1, "byteOffset" : 20, "componentType" : 5126, "count" : 132, "type" : "VEC3", "max" : [0.19633391499519348, 0.9955859184265137, 0.17278091609477997], "min" : [-0.9957670569419861, -0.08507988601922989, -0.2776931822299957], "name" : "NORMAL"}, {"bufferView" : 0, "byteOffset" : 312, "componentType" : 5123, "count" : 156, "type" : "SCALAR", "max" : [131], "min" : [0]}, {"bufferView" : 2, "byteOffset" : 0, "componentType" : 5126, "count" : 132, "type" : "VEC3", "max" : [1, 0, 1.2307462692260742], "min" : [-1.5386937856674194, -1.8215527534484863, -1.3955650329589844], "name" : "POSITION"}, {"bufferView" : 2, "byteOffset" : 12, "componentType" : 5126, "count" : 132, "type" : "VEC2", "max" : [1, 1], "min" : [0, 0], "name" : "TEXCOORD_0"}, {"bufferView" : 2, "byteOffset" : 20, "componentType" : 5126, "count" : 132, "type" : "VEC3", "max" : [0.19633391499519348, 0.9955859184265137, 0.17278091609477997], "min" : [-0.9957670569419861, -0.08507988601922989, -0.2776931822299957], "name" : "NORMAL"}, {"bufferView" : 0, "byteOffset" : 624, "componentType" : 5123, "count" : 156, "type" : "SCALAR", "max" : [131], "min" : [0]}, {"bufferView" : 3, "byteOffset" : 0, "componentType" : 5126, "count" : 132, "type" : "VEC3", "max" : [1.084179401397705, 0, 1.3298916816711426], "min" : [-1.5386937856674194, -1.8215527534484863, -1.3955650329589844], "name" : "POSITION"}, {"bufferView" : 3, "byteOffset" : 12, "componentType" : 5126, "count" : 132, "type" : "VEC2", "max" : [1, 1], "min" : [0, 0], "name" : "TEXCOORD_0"}, {"bufferView" : 3, "byteOffset" : 20, "componentType" : 5126, "count" : 132, "type" : "VEC3", "max" : [0.38257843255996704, 0.9935964941978455, 0.16637232899665833], "min" : [-0.9957670569419861, -0.08507988601922989, -0.27777355909347534], "name" : "NORMAL"}, {"bufferView" : 0, "byteOffset" : 936, "componentType" : 5123, "count" : 156, "type" : "SCALAR", "max" : [131], "min" : [0]}, {"bufferView" : 4, "byteOffset" : 0, "componentType" : 5126, "count" : 132, "type" : "VEC3", "max" : [1, 0, 1.2307462692260742], "min" : [-1.5386937856674194, -1.8215527534484863, -1.3955650329589844], "name" : "POSITION"}, {"bufferView" : 4, "byteOffset" : 12, "componentType" : 5126, "count" : 132, "type" : "VEC2", "max" : [1, 1], "min" : [0, 0], "name" : "TEXCOORD_0"}, {"bufferView" : 4, "byteOffset" : 20, "componentType" : 5126, "count" : 132, "type" : "VEC3", "max" : [0.19633391499519348, 0.9955859184265137, 0.17278091609477997], "min" : [-0.9957670569419861, -0.08507988601922989, -0.2776931822299957], "name" : "NORMAL"}, {"bufferView" : 0, "byteOffset" : 1248, "componentType" : 5123, "count" : 156, "type" : "SCALAR", "max" : [131], "min" : [0]}, {"bufferView" : 5, "byteOffset" : 0, "componentType" : 5126, "count" : 132, "type" : "VEC3", "max" : [1, 0, 1.2307462692260742], "min" : [-1.5386937856674194, -1.8215527534484863, -1.3955650329589844], "name" : "POSITION"}, {"bufferView" : 5, "byteOffset" : 12, "componentType" : 5126, "count" : 132, "type" : "VEC2", "max" : [1, 1], "min" : [0, 0], "name" : "TEXCOORD_0"}, {"bufferView" : 5, "byteOffset" : 20, "componentType" : 5126, "count" : 132, "type" : "VEC3", "max" : [0.19633391499519348, 0.9955859184265137, 0.17278091609477997], "min" : [-0.9957670569419861, -0.08507988601922989, -0.2776931822299957], "name" : "NORMAL"}, {"bufferView" : 0, "byteOffset" : 1560, "componentType" : 5123, "count" : 156, "type" : "SCALAR", "max" : [131], "min" : [0]}, {"bufferView" : 6, "byteOffset" : 0, "componentType" : 5126, "count" : 132, "type" : "VEC3", "max" : [1.084179401397705, 0, 1.901469111442566], "min" : [-1.5386937856674194, -1.8215527534484863, -1.8464856147766113], "name" : "POSITION"}, {"bufferView" : 6, "byteOffset" : 12, "componentType" : 5126, "count" : 132, "type" : "VEC2", "max" : [1, 1], "min" : [0, 0], "name" : "TEXCOORD_0"}, {"bufferView" : 6, "byteOffset" : 20, "componentType" : 5126, "count" : 132, "type" : "VEC3", "max" : [0.3806305229663849, 0.9941545128822327, 0.16637232899665833], "min" : [-0.9957670569419861, -0.0837138444185257, -0.22861164808273315], "name" : "NORMAL"}], "asset" : {"generator" : "Aspose.3D 22.12", "version" : "2.0"}, "buffers" : [{"uri" : "data:application/octet-stream;base64,", "byteLength" : 31852}], "bufferViews" : [{"buffer" : 0, "byteOffset" : 0, "byteLength" : 1872, "target" : 34963}, {"buffer" : 0, "byteOffset" : 1876, "byteLength" : 4992, "byteStride" : 32, "target" : 34962}, {"buffer" : 0, "byteOffset" : 6872, "byteLength" : 4992, "byteStride" : 32, "target" : 34962}, {"buffer" : 0, "byteOffset" : 11868, "byteLength" : 4992, "byteStride" : 32, "target" : 34962}, {"buffer" : 0, "byteOffset" : 16864, "byteLength" : 4992, "byteStride" : 32, "target" : 34962}, {"buffer" : 0, "byteOffset" : 21860, "byteLength" : 4992, "byteStride" : 32, "target" : 34962}, {"buffer" : 0, "byteOffset" : 26856, "byteLength" : 4992, "byteStride" : 32, "target" : 34962}], "materials" : [{"name" : "Material.001", "pbrMetallicRoughness" : {"baseColorFactor" : [0.4178851842880249, 0.5332764387130737, 0.18782085180282593, 1], "metallicFactor" : 0, "roughnessFactor" : 1}, "emissiveFactor" : [0, 0, 0], "alphaMode" : "OPAQUE", "doubleSided" : true}, {"name" : "Material.002", "pbrMetallicRoughness" : {"baseColorFactor" : [0.4178851842880249, 0.5332764387130737, 0.18782085180282593, 1], "metallicFactor" : 0, "roughnessFactor" : 1}, "emissiveFactor" : [0, 0, 0], "alphaMode" : "OPAQUE", "doubleSided" : true}, {"name" : "Material.003", "pbrMetallicRoughness" : {"baseColorFactor" : [0.4178851842880249, 0.5332764387130737, 0.18782085180282593, 1], "metallicFactor" : 0, "roughnessFactor" : 1}, "emissiveFactor" : [0, 0, 0], "alphaMode" : "OPAQUE", "doubleSided" : true}, {"name" : "Material.006", "pbrMetallicRoughness" : {"baseColorFactor" : [0.4178851842880249, 0.5332764387130737, 0.18782085180282593, 1], "metallicFactor" : 0, "roughnessFactor" : 1}, "emissiveFactor" : [0, 0, 0], "alphaMode" : "OPAQUE", "doubleSided" : true}, {"name" : "Material.005", "pbrMetallicRoughness" : {"baseColorFactor" : [0.4178851842880249, 0.5332764387130737, 0.18782085180282593, 1], "metallicFactor" : 0, "roughnessFactor" : 1}, "emissiveFactor" : [0, 0, 0], "alphaMode" : "OPAQUE", "doubleSided" : true}, {"name" : "Material.004", "pbrMetallicRoughness" : {"baseColorFactor" : [0.4178851842880249, 0.5332764387130737, 0.18782085180282593, 1], "metallicFactor" : 0, "roughnessFactor" : 1}, "emissiveFactor" : [0, 0, 0], "alphaMode" : "OPAQUE", "doubleSided" : true}], "meshes" : [{"primitives" : [{"attributes" : {"POSITION" : 1, "TEXCOORD_0" : 2, "NORMAL" : 3}, "indices" : 0, "material" : 0, "mode" : 4}]}, {"primitives" : [{"attributes" : {"POSITION" : 5, "TEXCOORD_0" : 6, "NORMAL" : 7}, "indices" : 4, "material" : 1, "mode" : 4}]}, {"primitives" : [{"attributes" : {"POSITION" : 9, "TEXCOORD_0" : 10, "NORMAL" : 11}, "indices" : 8, "material" : 2, "mode" : 4}]}, {"primitives" : [{"attributes" : {"POSITION" : 13, "TEXCOORD_0" : 14, "NORMAL" : 15}, "indices" : 12, "material" : 3, "mode" : 4}]}, {"primitives" : [{"attributes" : {"POSITION" : 17, "TEXCOORD_0" : 18, "NORMAL" : 19}, "indices" : 16, "material" : 4, "mode" : 4}]}, {"primitives" : [{"attributes" : {"POSITION" : 21, "TEXCOORD_0" : 22, "NORMAL" : 23}, "indices" : 20, "material" : 5, "mode" : 4}]}], "nodes" : [{"matrix" : [1, 0, 0, 0, 0, 1, 0, 0, 0, 0, 0.5, 0, 1.6319870948791504, 1.7302813529968262, 0.02162586897611618, 1], "mesh" : 0, "name" : "Leaf"}, {"matrix" : [-0.2719209961495437, 0, 0.5750074472326141, 0, 0, 0.6360617876052856, 0, 0, -0.28750372361630705, 0, -0.13596049807477184, 0, -0.40876835584640503, 1.0044076442718506, 0.8728705644607544, 1], "mesh" : 1, "name" : "Leaf.001"}, {"matrix" : [-0.6528527586546984, -0.09593821766291, -0.7513849266643644, 0, -0.14556605492474783, 1.8364856744686988, -0.10800852660159078, 0, 0.37668332592280906, 0.010529501324098488, -0.32863173220928493, 0, -1.251589298248291, 2.953623056411743, -1.4136979579925537, 1], "mesh" : 2, "name" : "Leaf.002"}, {"matrix" : [0.4133240542096175, 0, 0.9105840467279336, 0, 0, 2.179046154022217, 0, 0, -0.4552920233639668, 0, 0.20666202710480874, 0, 0.586961030960083, 3.963956832885742, 1.2653987407684326, 1], "mesh" : 3, "name" : "Leaf.005"}, {"matrix" : [-0.6359842365758018, 0, -0.009942515644957437, 0, 0, 1.3860080242156982, 0, 0, 0.004971257822478719, 0, -0.3179921182879009, 0, -1.0492331981658936, 2.3701305389404297, -0.03741136193275452, 1], "mesh" : 4, "name" : "Leaf.004"}, {"matrix" : [0.4214462314197989, -0.09757908333392397, -0.9205219996858907, 0, 0.08288914610219465, 3.9865198783104, -0.38463787650043935, 0, 0.45531706837974745, 0.010538248765481302, 0.20734251859340372, 0, 0.8594686388969421, 6.872380256652832, -2.1321749687194824, 1], "mesh" : 5, "name" : "Leaf.003"}], "scene" : 0, "scenes" : [{"nodes" : [0, 1, 2, 3, 4, 5]}]}