{
  "accessors": [
    {
      "bufferView": 2,
      "componentType": 5126,
      "count": 235,
      "max": [
        1.0774681568145752,
        1.5979992151260376,
        0.2802160680294037
      ],
      "min": [
        -1.0658435821533203,
        -0.7917757630348206,
        -0.2802160680294037
      ],
      "type": "VEC3"
    },
    {
      "bufferView": 2,
      "byteOffset": 2820,
      "componentType": 5126,
      "count": 235,
      "max": [
        0.9969766736030579,
        0.9980313777923584,
        0.999825119972229
      ],
      "min": [
        -0.9999704360961914,
        -0.9966536164283752,
        -0.9998142719268799
      ],
      "type": "VEC3"
    },
    {
      "bufferView": 1,
      "componentType": 5126,
      "count": 235,
      "max": [
        1.0,
        1.0
      ],
      "min": [
        0.0,
        0.0
      ],
      "type": "VEC2"
    },
    {
      "bufferView": 0,
      "componentType": 5125,
      "count": 1290,
      "type": "SCALAR"
    },
    {
      "bufferView": 2,
      "byteOffset": 5640,
      "componentType": 5126,
      "count": 56,
      "max": [
        0.8256853222846985,
        0.8185834288597107,
        0.8212451338768005
      ],
      "min": [
        -0.8185834884643555,
        -0.8181151747703552,
        -0.824870765209198
      ],
      "type": "VEC3"
    },
    {
      "bufferView": 2,
      "byteOffset": 6312,
      "componentType": 5126,
      "count": 56,
      "max": [
        0.9480776786804199,
        0.9588236808776855,
        0.9469080567359924
      ],
      "min": [
        -0.9585703611373901,
        -0.9512333273887634,
        -0.9651936888694763
      ],
      "type": "VEC3"
    },
    {
      "bufferView": 1,
      "byteOffset": 1880,
      "componentType": 5126,
      "count": 56,
      "max": [
        0.8750001192092896,
        1.0000001192092896
      ],
      "min": [
        0.1250000149011612,
        0.0
      ],
      "type": "VEC2"
    },
    {
      "bufferView": 0,
      "byteOffset": 5160,
      "componentType": 5125,
      "count": 210,
      "type": "SCALAR"
    }
  ],
  "asset": {
    "extras": {
      "author": "summer57 (https://sketchfab.com/summer5717)",
      "license": "CC-BY-4.0 (http://creativecommons.org/licenses/by/4.0/)",
      "source": "https://sketchfab.com/3d-models/question-3d-icon-ba8c685715a849fab6f289a2469d1567",
      "title": "Question 3D icon"
    },
    "generator": "Sketchfab-13.83.0",
    "version": "2.0"
  },
  "bufferViews": [
    {
      "buffer": 0,
      "byteLength": 6000,
      "name": "floatBufferViews",
      "target": 34963
    },
    {
      "buffer": 0,
      "byteLength": 2328,
      "byteOffset": 6000,
      "byteStride": 8,
      "name": "floatBufferViews",
      "target": 34962
    },
    {
      "buffer": 0,
      "byteLength": 6984,
      "byteOffset": 8328,
      "byteStride": 12,
      "name": "floatBufferViews",
      "target": 34962
    }
  ],
  "buffers": [
    {
      "byteLength": 15312,
      "uri": "question.bin"
    }
  ],
  "materials": [
    {
      "doubleSided": true,
      "name": "Material",
      "pbrMetallicRoughness": {
        "baseColorFactor": [
          0.8,
          0.0,
          0.00210788,
          1.0
        ],
        "metallicFactor": 0.0,
        "roughnessFactor": 0.9619349253580516
      }
    }
  ],
  "meshes": [
    {
      "name": "BezierCurve_Material_0",
      "primitives": [
        {
          "attributes": {
            "NORMAL": 1,
            "POSITION": 0,
            "TEXCOORD_0": 2
          },
          "indices": 3,
          "material": 0,
          "mode": 4
        }
      ]
    },
    {
      "name": "Cube_Material_0",
      "primitives": [
        {
          "attributes": {
            "NORMAL": 5,
            "POSITION": 4,
            "TEXCOORD_0": 6
          },
          "indices": 7,
          "material": 0,
          "mode": 4
        }
      ]
    }
  ],
  "nodes": [
    {
      "children": [
        1
      ],
      "matrix": [
        1.0,
        0.0,
        0.0,
        0.0,
        0.0,
        2.220446049250313e-16,
        -1.0,
        0.0,
        0.0,
        1.0,
        2.220446049250313e-16,
        0.0,
        0.0,
        0.0,
        0.0,
        1.0
      ],
      "name": "Sketchfab_model"
    },
    {
      "children": [
        2
      ],
      "matrix": [
        0.009999999776482582,
        0.0,
        0.0,
        0.0,
        0.0,
        0.0,
        0.009999999776482582,
        0.0,
        0.0,
        -0.009999999776482582,
        0.0,
        0.0,
        0.0,
        0.0,
        0.0,
        1.0
      ],
      "name": "2c54e206c80d40afb6ba34ec1e79adae.fbx"
    },
    {
      "children": [
        3,
        5,
        7
      ],
      "name": "RootNode"
    },
    {
      "children": [
        4
      ],
      "matrix": [
        -83.66807993142233,
        -39.0836068770666,
        -38.368288989046725,
        0.0,
        -34.906134486550556,
        92.03598650802064,
        -17.63354798276098,
        0.0,
        42.20445018954609,
        -1.360764154802932,
        -90.64729838838623,
        0.0,
        1504.8922119140625,
        702.9802856445313,
        690.1096801757813,
        1.0
      ],
      "name": "Camera"
    },
    {
      "name": "Object_4"
    },
    {
      "children": [
        6
      ],
      "matrix": [
        100.0,
        0.0,
        0.0,
        0.0,
        0.0,
        -1.629206793918314e-05,
        -99.99999999999868,
        0.0,
        0.0,
        99.99999999999868,
        -1.629206793918314e-05,
        0.0,
        0.0,
        0.0,
        0.0,
        1.0
      ],
      "name": "BezierCurve"
    },
    {
      "mesh": 0,
      "name": "BezierCurve_Material_0"
    },
    {
      "children": [
        8
      ],
      "matrix": [
        32.75373458862305,
        0.0,
        0.0,
        0.0,
        0.0,
        -5.336260691798195e-06,
        -32.75373458862261,
        0.0,
        0.0,
        32.75373458862261,
        -5.336260691798195e-06,
        0.0,
        0.0,
        0.0,
        123.3851547241211,
        1.0
      ],
      "name": "Cube"
    },
    {
      "mesh": 1,
      "name": "Cube_Material_0"
    }
  ],
  "scene": 0,
  "scenes": [
    {
      "name": "Sketchfab_Scene",
      "nodes": [
        0
      ]
    }
  ]
}
