{"accessors" : [{"bufferView" : 0, "byteOffset" : 0, "componentType" : 5123, "count" : 2688, "type" : "SCALAR", "max" : [2241], "min" : [0]}, {"bufferView" : 1, "byteOffset" : 0, "componentType" : 5126, "count" : 2242, "type" : "VEC3", "max" : [1, 2, 1], "min" : [-1, 0, -1], "name" : "POSITION"}, {"bufferView" : 1, "byteOffset" : 12, "componentType" : 5126, "count" : 2242, "type" : "VEC2", "max" : [1, 1], "min" : [0, 0], "name" : "TEXCOORD_0"}, {"bufferView" : 1, "byteOffset" : 20, "componentType" : 5126, "count" : 2242, "type" : "VEC3", "max" : [0.9951891303062439, 1.0000044107437134, 0.9951891303062439], "min" : [-0.9951891303062439, -1.0000044107437134, -0.9951891303062439], "name" : "NORMAL"}, {"bufferView" : 0, "byteOffset" : 5376, "componentType" : 5123, "count" : 5376, "type" : "SCALAR", "max" : [4607], "min" : [0]}, {"bufferView" : 2, "byteOffset" : 0, "componentType" : 5126, "count" : 4608, "type" : "VEC3", "max" : [1.0428828001022339, 1.8823529481887817, 1.0428828001022339], "min" : [-1.0428828001022339, 0.3529411852359772, -1.0428828001022339], "name" : "POSITION"}, {"bufferView" : 2, "byteOffset" : 12, "componentType" : 5126, "count" : 4608, "type" : "VEC2", "max" : [1, 0.4117647409439087], "min" : [-0.005602906923741102, 0.029411673545837402], "name" : "TEXCOORD_0"}, {"bufferView" : 2, "byteOffset" : 20, "componentType" : 5126, "count" : 4608, "type" : "VEC3", "max" : [1.0000044107437134, 1.0000044107437134, 1.0000044107437134], "min" : [-1.0000044107437134, -1.0000044107437134, -1.0000044107437134], "name" : "NORMAL"}, {"bufferView" : 0, "byteOffset" : 16128, "componentType" : 5123, "count" : 1710, "type" : "SCALAR", "max" : [1454], "min" : [0]}, {"bufferView" : 3, "byteOffset" : 0, "componentType" : 5126, "count" : 1455, "type" : "VEC3", "max" : [1.0780290365219116, 1, 0.9999994039535522], "min" : [-0.9999990463256836, -5.21540641784668E-08, -0.9999987483024597], "name" : "POSITION"}, {"bufferView" : 3, "byteOffset" : 12, "componentType" : 5126, "count" : 1455, "type" : "VEC2", "max" : [1.000075101852417, 0.5000000596046448], "min" : [-7.522419036831707E-05, 0], "name" : "TEXCOORD_0"}, {"bufferView" : 3, "byteOffset" : 20, "componentType" : 5126, "count" : 1455, "type" : "VEC3", "max" : [0.9951891303062439, 1.0000044107437134, 0.9951896667480469], "min" : [-0.9951891899108887, -0.9664488434791565, -0.9951891899108887], "name" : "NORMAL"}, {"bufferView" : 0, "byteOffset" : 19548, "componentType" : 5123, "count" : 948, "type" : "SCALAR", "max" : [790], "min" : [0]}, {"bufferView" : 4, "byteOffset" : 0, "componentType" : 5126, "count" : 791, "type" : "VEC3", "max" : [1, 1, 1], "min" : [-1, -1, -1], "name" : "POSITION"}, {"bufferView" : 4, "byteOffset" : 12, "componentType" : 5126, "count" : 791, "type" : "VEC2", "max" : [1, 0.9900000095367432], "min" : [0, 0], "name" : "TEXCOORD_0"}, {"bufferView" : 4, "byteOffset" : 20, "componentType" : 5126, "count" : 791, "type" : "VEC3", "max" : [0.9951890707015991, 1.0000044107437134, 0.9951891303062439], "min" : [-0.9951890707015991, -1.0000042915344238, -0.9951891303062439], "name" : "NORMAL"}], "asset" : {"generator" : "Aspose.3D 22.12", "version" : "2.0"}, "buffers" : [{"uri" : "data:application/octet-stream;base64,", "byteLength" : 364568}], "bufferViews" : [{"buffer" : 0, "byteOffset" : 0, "byteLength" : 21444, "target" : 34963}, {"buffer" : 0, "byteOffset" : 21448, "byteLength" : 86016, "byteStride" : 32, "target" : 34962}, {"buffer" : 0, "byteOffset" : 107468, "byteLength" : 172032, "byteStride" : 32, "target" : 34962}, {"buffer" : 0, "byteOffset" : 279504, "byteLength" : 54720, "byteStride" : 32, "target" : 34962}, {"buffer" : 0, "byteOffset" : 334228, "byteLength" : 30336, "byteStride" : 32, "target" : 34962}], "materials" : [{"name" : "Material.001", "pbrMetallicRoughness" : {"baseColorFactor" : [0.22696594893932343, 0.0036764785181730986, 0.011612249538302422, 1], "metallicFactor" : 0, "roughnessFactor" : 1}, "emissiveFactor" : [0, 0, 0], "alphaMode" : "OPAQUE", "doubleSided" : true}, {"name" : "Material.002", "pbrMetallicRoughness" : {"baseColorFactor" : [0.800000011920929, 0.800000011920929, 0.800000011920929, 1], "metallicFactor" : 1, "roughnessFactor" : 0.4000000059604645}, "emissiveFactor" : [0, 0, 0], "alphaMode" : "OPAQUE", "doubleSided" : true}, {"name" : "Material.003", "pbrMetallicRoughness" : {"baseColorFactor" : [0.800000011920929, 0.800000011920929, 0.800000011920929, 1], "metallicFactor" : 1, "roughnessFactor" : 0.4000000059604645}, "emissiveFactor" : [0, 0, 0], "alphaMode" : "OPAQUE", "doubleSided" : true}, {"name" : "Material.004", "pbrMetallicRoughness" : {"baseColorFactor" : [0.800000011920929, 0.800000011920929, 0.800000011920929, 1], "metallicFactor" : 1, "roughnessFactor" : 0.4000000059604645}, "emissiveFactor" : [0, 0, 0], "alphaMode" : "OPAQUE", "doubleSided" : true}], "meshes" : [{"primitives" : [{"attributes" : {"POSITION" : 1, "TEXCOORD_0" : 2, "NORMAL" : 3}, "indices" : 0, "material" : 0, "mode" : 4}]}, {"primitives" : [{"attributes" : {"POSITION" : 5, "TEXCOORD_0" : 6, "NORMAL" : 7}, "indices" : 4, "material" : 1, "mode" : 4}]}, {"primitives" : [{"attributes" : {"POSITION" : 9, "TEXCOORD_0" : 10, "NORMAL" : 11}, "indices" : 8, "material" : 2, "mode" : 4}]}, {"primitives" : [{"attributes" : {"POSITION" : 13, "TEXCOORD_0" : 14, "NORMAL" : 15}, "indices" : 12, "material" : 3, "mode" : 4}]}], "nodes" : [{"mesh" : 0, "name" : "Silo"}, {"mesh" : 1, "name" : "Silo Rings"}, {"matrix" : [1, 0, 0, 0, 0, 0.6102003455162048, 0, 0, 0, 0, 1, 0, 0, 2, 0, 1], "mesh" : 2, "name" : "Sphere"}, {"matrix" : [0.0748419389128685, 0, 0, 0, 0, -1.021067500114441, 0, 0, 0, 0, 0.12792563438415527, 0, 1, 1, 0, 1], "mesh" : 3, "name" : "Cylinder"}], "scene" : 0, "scenes" : [{"nodes" : [0, 1, 2, 3]}]}