{"accessors" : [{"bufferView" : 0, "byteOffset" : 0, "componentType" : 5123, "count" : 156, "type" : "SCALAR", "max" : [131], "min" : [0]}, {"bufferView" : 1, "byteOffset" : 0, "componentType" : 5126, "count" : 132, "type" : "VEC3", "max" : [0.2736435532569885, -0.27135294675827026, 1.5792781114578247], "min" : [-1.5386937856674194, -1.8215527534484863, -1.1173263788223267], "name" : "POSITION"}, {"bufferView" : 1, "byteOffset" : 12, "componentType" : 5126, "count" : 132, "type" : "VEC2", "max" : [1, 1], "min" : [0, 0], "name" : "TEXCOORD_0"}, {"bufferView" : 1, "byteOffset" : 20, "componentType" : 5126, "count" : 132, "type" : "VEC3", "max" : [0.9590050578117371, 0.949558675289154, 0.14120176434516907], "min" : [-0.9957670569419861, -0.08507988601922989, -0.3977612555027008], "name" : "NORMAL"}, {"bufferView" : 0, "byteOffset" : 312, "componentType" : 5123, "count" : 156, "type" : "SCALAR", "max" : [131], "min" : [0]}, {"bufferView" : 2, "byteOffset" : 0, "componentType" : 5126, "count" : 132, "type" : "VEC3", "max" : [0.5532889366149902, -0.33347511291503906, 1.6963528394699097], "min" : [-1.5386937856674194, -1.8215527534484863, -0.9809786677360535], "name" : "POSITION"}, {"bufferView" : 2, "byteOffset" : 12, "componentType" : 5126, "count" : 132, "type" : "VEC2", "max" : [1, 1], "min" : [0, 0], "name" : "TEXCOORD_0"}, {"bufferView" : 2, "byteOffset" : 20, "componentType" : 5126, "count" : 132, "type" : "VEC3", "max" : [0.7761147022247314, 0.9865680932998657, 0.1722717434167862], "min" : [-0.9957670569419861, -0.08507988601922989, -0.25096485018730164], "name" : "NORMAL"}, {"bufferView" : 0, "byteOffset" : 624, "componentType" : 5123, "count" : 156, "type" : "SCALAR", "max" : [131], "min" : [0]}, {"bufferView" : 3, "byteOffset" : 0, "componentType" : 5126, "count" : 132, "type" : "VEC3", "max" : [0.6229311227798462, -0.5941978693008423, 1.3145697116851807], "min" : [-1.5386937856674194, -1.8215527534484863, -1.379199504852295], "name" : "POSITION"}, {"bufferView" : 3, "byteOffset" : 12, "componentType" : 5126, "count" : 132, "type" : "VEC2", "max" : [1, 1], "min" : [0, 0], "name" : "TEXCOORD_0"}, {"bufferView" : 3, "byteOffset" : 20, "componentType" : 5126, "count" : 132, "type" : "VEC3", "max" : [0.639739990234375, 0.9929488301277161, 0.15493781864643097], "min" : [-0.9957670569419861, -0.08507988601922989, -0.35570788383483887], "name" : "NORMAL"}], "asset" : {"generator" : "Aspose.3D 22.12", "version" : "2.0"}, "buffers" : [{"uri" : "data:application/octet-stream;base64,", "byteLength" : 15928}], "bufferViews" : [{"buffer" : 0, "byteOffset" : 0, "byteLength" : 936, "target" : 34963}, {"buffer" : 0, "byteOffset" : 940, "byteLength" : 4992, "byteStride" : 32, "target" : 34962}, {"buffer" : 0, "byteOffset" : 5936, "byteLength" : 4992, "byteStride" : 32, "target" : 34962}, {"buffer" : 0, "byteOffset" : 10932, "byteLength" : 4992, "byteStride" : 32, "target" : 34962}], "materials" : [{"name" : "Material.001", "pbrMetallicRoughness" : {"baseColorFactor" : [0.027008725330233574, 0.03310264274477959, 0.014219200238585472, 1], "metallicFactor" : 0, "roughnessFactor" : 1}, "emissiveFactor" : [0, 0, 0], "alphaMode" : "OPAQUE", "doubleSided" : true}, {"name" : "Material.002", "pbrMetallicRoughness" : {"baseColorFactor" : [0.06688766926527023, 0.08353149890899658, 0.032780252397060394, 1], "metallicFactor" : 0, "roughnessFactor" : 1}, "emissiveFactor" : [0, 0, 0], "alphaMode" : "OPAQUE", "doubleSided" : true}, {"name" : "Material.003", "pbrMetallicRoughness" : {"baseColorFactor" : [0.03410162776708603, 0.042027536779642105, 0.017588458955287933, 1], "metallicFactor" : 0, "roughnessFactor" : 1}, "emissiveFactor" : [0, 0, 0], "alphaMode" : "OPAQUE", "doubleSided" : true}], "meshes" : [{"primitives" : [{"attributes" : {"POSITION" : 1, "TEXCOORD_0" : 2, "NORMAL" : 3}, "indices" : 0, "material" : 0, "mode" : 4}]}, {"primitives" : [{"attributes" : {"POSITION" : 5, "TEXCOORD_0" : 6, "NORMAL" : 7}, "indices" : 4, "material" : 1, "mode" : 4}]}, {"primitives" : [{"attributes" : {"POSITION" : 9, "TEXCOORD_0" : 10, "NORMAL" : 11}, "indices" : 8, "material" : 2, "mode" : 4}]}], "nodes" : [{"matrix" : [1, 0, 0, 0, 0, 1, 0, 0, 0, 0, 0.5, 0, 1.5526409149169922, 1.7919739484786987, 0.028915658593177795, 1], "mesh" : 0, "name" : "Leaf"}, {"matrix" : [-0.2719209961495437, 0, 0.5750074472326141, 0, 0, 0.6360617876052856, 0, 0, -0.28750372361630705, 0, -0.13596049807477184, 0, -0.4635468125343323, 1.1104662418365479, 0.9133637547492981, 1], "mesh" : 1, "name" : "Leaf.001"}, {"matrix" : [-0.6528527586546984, -0.09593821766291, -0.7513849266643644, 0, -0.14556605492474783, 1.8364856744686988, -0.10800852660159078, 0, 0.37668332592280906, 0.010529501324098488, -0.32863173220928493, 0, -1.22722589969635, 3.116612195968628, -1.350484848022461, 1], "mesh" : 2, "name" : "Leaf.002"}], "scene" : 0, "scenes" : [{"nodes" : [0, 1, 2]}]}